%
M48
M72
T01C0.01378
T02C0.03150
T03C0.03937
T04C0.04000
%
T01
X865303Y970303
X863303Y982303
X873303Y988303
X877303Y980303
X885303Y970303
X889303Y970303
X893303Y966303
X901303Y958303
X913303Y958303
X911303Y948303
X926924Y956681
X927303Y960303
X939303Y969303
X947303Y968303
X949303Y962303
X951303Y978303
X947725Y978754
X943477Y978477
X947303Y992017
X939828Y992665
X941492Y998492
X936665Y1001828
X934914Y996250
X929303Y1000303
X921692Y1000303
X919303Y994303
X913356Y993875
X909303Y993200
X909298Y1000282
X909303Y1006303
X896089Y1006692
X889303Y1006303
X885303Y1008692
X881303Y1014303
X885510Y1018303
X875303Y1026303
X865303Y1042303
X855303Y1046303
X857692Y1034303
X857692Y1010303
X861303Y1001692
X882235Y994303
X885303Y1000303
X893303Y994303
X905303Y986303
X919303Y980303
X927303Y981846
X924212Y1007666
X929303Y1012303
X927303Y1022303
X927299Y1031677
X922904Y1033168
X919326Y1032380
X927303Y1042095
X923303Y1046692
X921303Y1052303
X915303Y1044303
X932081Y1060303
X937303Y1060303
X937303Y1054303
X943303Y1054303
X940006Y1037946
X923754Y1074303
X909303Y1084303
X904303Y1074303
X895303Y1082303
X895303Y1064303
X881303Y1058303
X881692Y1050303
X859692Y1070303
X881303Y1122303
X909303Y1118303
X915303Y1110303
X911692Y1102303
X915303Y1098303
X919303Y1100303
X935303Y1114303
X935303Y1126303
X958326Y1109892
X961303Y1114303
X963303Y1094303
X950303Y1084303
X979303Y1074303
X983303Y1062303
X977303Y1042303
X979303Y1038303
X992914Y1034303
X994303Y1029303
X990914Y1026303
X994303Y1021303
X991692Y1017725
X986914Y1016303
X986624Y1009624
X986914Y1005935
X993303Y1006303
X989303Y999303
X987273Y996273
X982613Y1000992
X977303Y998103
X979303Y994303
X979303Y984303
X979303Y974303
X981303Y966303
X983303Y962303
X989303Y974303
X994303Y994303
X1001303Y1010303
X995531Y1014531
X999303Y1026135
X997303Y1040303
X1002575Y1040642
X1029303Y1044303
X1034303Y1039303
X1029303Y1034303
X1029303Y1009303
X1024303Y1009303
X1014303Y1008336
X1014303Y1011914
X1009303Y1014303
X1011914Y1002303
X1019303Y999303
X1024303Y994303
X1014303Y989303
X1025303Y970303
X1023303Y958303
X989303Y944303
X985303Y928303
X989303Y919303
X994914Y922303
X985303Y902303
X969303Y909303
X973303Y916692
X975303Y932303
X953303Y934303
X947303Y928692
X939303Y919303
X935303Y923914
X903303Y920303
X899303Y899303
X909303Y896692
X883303Y924303
X879725Y924303
X959303Y869792
X973303Y888803
X967303Y962303
X965395Y983806
X969303Y984303
X967740Y987848
X964219Y989386
X989303Y1086303
X981303Y1092303
X986914Y1096303
X987303Y1111092
X979303Y1114303
X976914Y1111092
X979303Y1124303
X979303Y1132303
X973303Y1173774
X905355Y1146227
X1025303Y1082692
X1028914Y1080303
X1037303Y1002303
X1084303Y1026692
X1089303Y1029303
X1084303Y1034303
X1089303Y1039303
X1089303Y1046303
X1096692Y1049303
X1094303Y1054303
X1094303Y1064303
X1096800Y1079805
X1091303Y1086303
X1094303Y1094303
X1119303Y1112303
X1134303Y1089303
X1140055Y1097055
X1139303Y1112303
X1149303Y1084303
X1136303Y1079303
X1131805Y1077805
X1134303Y1059303
X1139303Y1054303
X1149303Y1059303
X1154303Y1069303
X1173303Y1062303
X1177303Y1090303
X1208170Y1044303
X1199303Y1029303
X1189303Y1009303
X1174303Y1029303
X1169303Y1034303
X1164303Y1024303
X1164303Y999303
X1179303Y984303
X1179303Y969303
X1164303Y969303
X1164303Y949303
X1144303Y964303
X1139303Y943370
X1129303Y994303
X1134303Y1014303
X1134303Y1019303
X1139303Y1019303
X1139303Y1029303
X1134303Y1039303
X1124303Y1044303
X1114303Y1044303
X1104303Y1039303
X1099303Y1026692
X1099303Y1009303
X1114303Y1009303
X1119303Y1019303
X1124303Y1019303
X1104303Y994303
X1099303Y989303
X1094303Y979303
X1096692Y974303
X1096692Y969303
X1094303Y954303
X1094303Y949303
X1099303Y929303
T02
X964303Y914303
X964303Y904303
X964240Y888803
X964240Y878803
X904303Y954303
X894303Y954303
X879803Y964240
X869803Y964240
X868803Y1074366
X878803Y1074366
X894303Y1089303
X904303Y1089303
X974303Y1129303
X974303Y1139303
X974240Y1153803
X974240Y1163803
T03
X1004303Y1084303
X1014303Y1084303
X1014303Y1074303
X1014303Y1064303
X1004303Y1064303
X1004303Y1074303
X1004303Y974303
X1014303Y974303
X1014303Y964303
X1014303Y954303
X1004303Y954303
X1004303Y964303
X1151803Y1109303
X1164303Y1109303
X1176803Y1109303
X1176507Y1079303
X1176507Y1054303
X1202098Y1054303
X1202098Y1079303
X1199303Y999303
X1199303Y989303
X1199303Y979303
X1199303Y957177
X1199303Y949303
X1199303Y941429
T04
X979303Y944303
X979303Y954303
X969303Y954303
X969303Y944303
X959303Y944303
X959303Y954303
X949303Y954303
X949303Y944303
M30
