G75*
%MOIN*%
%OFA0B0*%
%FSLAX25Y25*%
%IPPOS*%
%LPD*%
%AMOC8*
5,1,8,0,0,1.08239X$1,22.5*
%
%ADD10C,0.00000*%
%ADD11C,0.07800*%
%ADD12R,0.07400X0.07400*%
%ADD13OC8,0.08200*%
%ADD14C,0.06400*%
%ADD15C,0.07400*%
%ADD16C,0.00500*%
%ADD17C,0.03778*%
D10*
X0831303Y0844303D02*
X0827303Y1199263D01*
X1217003Y1199263D01*
X1219003Y0844303D01*
X0831303Y0844303D01*
D11*
X1176507Y1054303D03*
X1176507Y1079303D03*
X1202098Y1079303D03*
X1202098Y1054303D03*
D12*
X1199303Y0999303D03*
X1199303Y0989303D03*
X1199303Y0979303D03*
X1199303Y0957177D03*
X1199303Y0949303D03*
X1199303Y0941429D03*
D13*
X0979303Y0944303D03*
X0979303Y0954303D03*
X0969303Y0954303D03*
X0969303Y0944303D03*
X0959303Y0944303D03*
X0959303Y0954303D03*
X0949303Y0954303D03*
X0949303Y0944303D03*
D14*
X0964303Y0914303D03*
X0964303Y0904303D03*
X0964240Y0888803D03*
X0964240Y0878803D03*
X0904303Y0954303D03*
X0894303Y0954303D03*
X0879803Y0964240D03*
X0869803Y0964240D03*
X0868803Y1074366D03*
X0878803Y1074366D03*
X0894303Y1089303D03*
X0904303Y1089303D03*
X0974303Y1129303D03*
X0974303Y1139303D03*
X0974240Y1153803D03*
X0974240Y1163803D03*
D15*
X1004303Y1084303D03*
X1014303Y1084303D03*
X1014303Y1074303D03*
X1014303Y1064303D03*
X1004303Y1064303D03*
X1004303Y1074303D03*
X1004303Y0974303D03*
X1014303Y0974303D03*
X1014303Y0964303D03*
X1014303Y0954303D03*
X1004303Y0954303D03*
X1004303Y0964303D03*
X1151803Y1109303D03*
X1164303Y1109303D03*
X1176803Y1109303D03*
D16*
X1174539Y1145287D02*
X1213909Y1105917D01*
X1213909Y0932688D01*
X1174539Y0893318D01*
X1001310Y0893318D01*
X1001310Y0853948D01*
X1024342Y0910051D02*
X1024344Y0910185D01*
X1024350Y0910319D01*
X1024360Y0910453D01*
X1024374Y0910587D01*
X1024392Y0910720D01*
X1024413Y0910852D01*
X1024439Y0910984D01*
X1024469Y0911115D01*
X1024502Y0911245D01*
X1024539Y0911373D01*
X1024581Y0911501D01*
X1024625Y0911628D01*
X1024674Y0911753D01*
X1024726Y0911876D01*
X1024782Y0911998D01*
X1024842Y0912119D01*
X1024905Y0912237D01*
X1024971Y0912354D01*
X1025041Y0912468D01*
X1025114Y0912581D01*
X1025191Y0912691D01*
X1025271Y0912799D01*
X1025354Y0912904D01*
X1025440Y0913007D01*
X1025529Y0913107D01*
X1025621Y0913205D01*
X1025716Y0913300D01*
X1025814Y0913392D01*
X1025914Y0913481D01*
X1026017Y0913567D01*
X1026122Y0913650D01*
X1026230Y0913730D01*
X1026340Y0913807D01*
X1026453Y0913880D01*
X1026567Y0913950D01*
X1026684Y0914016D01*
X1026802Y0914079D01*
X1026923Y0914139D01*
X1027045Y0914195D01*
X1027168Y0914247D01*
X1027293Y0914296D01*
X1027420Y0914340D01*
X1027548Y0914382D01*
X1027676Y0914419D01*
X1027806Y0914452D01*
X1027937Y0914482D01*
X1028069Y0914508D01*
X1028201Y0914529D01*
X1028334Y0914547D01*
X1028468Y0914561D01*
X1028602Y0914571D01*
X1028736Y0914577D01*
X1028870Y0914579D01*
X1029004Y0914577D01*
X1029138Y0914571D01*
X1029272Y0914561D01*
X1029406Y0914547D01*
X1029539Y0914529D01*
X1029671Y0914508D01*
X1029803Y0914482D01*
X1029934Y0914452D01*
X1030064Y0914419D01*
X1030192Y0914382D01*
X1030320Y0914340D01*
X1030447Y0914296D01*
X1030572Y0914247D01*
X1030695Y0914195D01*
X1030817Y0914139D01*
X1030938Y0914079D01*
X1031056Y0914016D01*
X1031173Y0913950D01*
X1031287Y0913880D01*
X1031400Y0913807D01*
X1031510Y0913730D01*
X1031618Y0913650D01*
X1031723Y0913567D01*
X1031826Y0913481D01*
X1031926Y0913392D01*
X1032024Y0913300D01*
X1032119Y0913205D01*
X1032211Y0913107D01*
X1032300Y0913007D01*
X1032386Y0912904D01*
X1032469Y0912799D01*
X1032549Y0912691D01*
X1032626Y0912581D01*
X1032699Y0912468D01*
X1032769Y0912354D01*
X1032835Y0912237D01*
X1032898Y0912119D01*
X1032958Y0911998D01*
X1033014Y0911876D01*
X1033066Y0911753D01*
X1033115Y0911628D01*
X1033159Y0911501D01*
X1033201Y0911373D01*
X1033238Y0911245D01*
X1033271Y0911115D01*
X1033301Y0910984D01*
X1033327Y0910852D01*
X1033348Y0910720D01*
X1033366Y0910587D01*
X1033380Y0910453D01*
X1033390Y0910319D01*
X1033396Y0910185D01*
X1033398Y0910051D01*
X1033396Y0909917D01*
X1033390Y0909783D01*
X1033380Y0909649D01*
X1033366Y0909515D01*
X1033348Y0909382D01*
X1033327Y0909250D01*
X1033301Y0909118D01*
X1033271Y0908987D01*
X1033238Y0908857D01*
X1033201Y0908729D01*
X1033159Y0908601D01*
X1033115Y0908474D01*
X1033066Y0908349D01*
X1033014Y0908226D01*
X1032958Y0908104D01*
X1032898Y0907983D01*
X1032835Y0907865D01*
X1032769Y0907748D01*
X1032699Y0907634D01*
X1032626Y0907521D01*
X1032549Y0907411D01*
X1032469Y0907303D01*
X1032386Y0907198D01*
X1032300Y0907095D01*
X1032211Y0906995D01*
X1032119Y0906897D01*
X1032024Y0906802D01*
X1031926Y0906710D01*
X1031826Y0906621D01*
X1031723Y0906535D01*
X1031618Y0906452D01*
X1031510Y0906372D01*
X1031400Y0906295D01*
X1031287Y0906222D01*
X1031173Y0906152D01*
X1031056Y0906086D01*
X1030938Y0906023D01*
X1030817Y0905963D01*
X1030695Y0905907D01*
X1030572Y0905855D01*
X1030447Y0905806D01*
X1030320Y0905762D01*
X1030192Y0905720D01*
X1030064Y0905683D01*
X1029934Y0905650D01*
X1029803Y0905620D01*
X1029671Y0905594D01*
X1029539Y0905573D01*
X1029406Y0905555D01*
X1029272Y0905541D01*
X1029138Y0905531D01*
X1029004Y0905525D01*
X1028870Y0905523D01*
X1028736Y0905525D01*
X1028602Y0905531D01*
X1028468Y0905541D01*
X1028334Y0905555D01*
X1028201Y0905573D01*
X1028069Y0905594D01*
X1027937Y0905620D01*
X1027806Y0905650D01*
X1027676Y0905683D01*
X1027548Y0905720D01*
X1027420Y0905762D01*
X1027293Y0905806D01*
X1027168Y0905855D01*
X1027045Y0905907D01*
X1026923Y0905963D01*
X1026802Y0906023D01*
X1026684Y0906086D01*
X1026567Y0906152D01*
X1026453Y0906222D01*
X1026340Y0906295D01*
X1026230Y0906372D01*
X1026122Y0906452D01*
X1026017Y0906535D01*
X1025914Y0906621D01*
X1025814Y0906710D01*
X1025716Y0906802D01*
X1025621Y0906897D01*
X1025529Y0906995D01*
X1025440Y0907095D01*
X1025354Y0907198D01*
X1025271Y0907303D01*
X1025191Y0907411D01*
X1025114Y0907521D01*
X1025041Y0907634D01*
X1024971Y0907748D01*
X1024905Y0907865D01*
X1024842Y0907983D01*
X1024782Y0908104D01*
X1024726Y0908226D01*
X1024674Y0908349D01*
X1024625Y0908474D01*
X1024581Y0908601D01*
X1024539Y0908729D01*
X1024502Y0908857D01*
X1024469Y0908987D01*
X1024439Y0909118D01*
X1024413Y0909250D01*
X1024392Y0909382D01*
X1024374Y0909515D01*
X1024360Y0909649D01*
X1024350Y0909783D01*
X1024344Y0909917D01*
X1024342Y0910051D01*
X1001310Y0853949D02*
X0997283Y0853998D01*
X0993259Y0854145D01*
X0989240Y0854390D01*
X0985228Y0854733D01*
X0981225Y0855173D01*
X0977234Y0855711D01*
X0973258Y0856346D01*
X0969298Y0857077D01*
X0965357Y0857905D01*
X0961438Y0858828D01*
X0957542Y0859847D01*
X0953672Y0860960D01*
X0949830Y0862167D01*
X0946019Y0863467D01*
X0942240Y0864860D01*
X0938497Y0866344D01*
X0934791Y0867919D01*
X0931124Y0869584D01*
X0927499Y0871337D01*
X0923918Y0873178D01*
X0920383Y0875106D01*
X0916895Y0877120D01*
X0913458Y0879217D01*
X0910073Y0881398D01*
X0906742Y0883661D01*
X0903467Y0886004D01*
X0900250Y0888426D01*
X0897093Y0890926D01*
X0893998Y0893501D01*
X0890966Y0896152D01*
X0888000Y0898875D01*
X0885101Y0901670D01*
X0882271Y0904535D01*
X0879512Y0907468D01*
X0876824Y0910467D01*
X0874211Y0913531D01*
X0871673Y0916657D01*
X0869212Y0919844D01*
X0866829Y0923090D01*
X0864526Y0926394D01*
X0862304Y0929752D01*
X0860165Y0933163D01*
X0858109Y0936626D01*
X0856138Y0940138D01*
X0854254Y0943696D01*
X0852456Y0947300D01*
X0850747Y0950946D01*
X0849127Y0954632D01*
X0847597Y0958357D01*
X0846159Y0962118D01*
X0844812Y0965913D01*
X0843559Y0969740D01*
X0842399Y0973596D01*
X0841333Y0977479D01*
X0840362Y0981387D01*
X0839486Y0985318D01*
X0838707Y0989269D01*
X0838023Y0993237D01*
X0837437Y0997221D01*
X0836948Y1001218D01*
X0836556Y1005226D01*
X0836262Y1009242D01*
X0836066Y1013264D01*
X0835968Y1017290D01*
X0835968Y1021316D01*
X0836066Y1025342D01*
X0836262Y1029364D01*
X0836556Y1033380D01*
X0836948Y1037388D01*
X0837437Y1041385D01*
X0838023Y1045369D01*
X0838707Y1049337D01*
X0839486Y1053288D01*
X0840362Y1057219D01*
X0841333Y1061127D01*
X0842399Y1065010D01*
X0843559Y1068866D01*
X0844812Y1072693D01*
X0846159Y1076488D01*
X0847597Y1080249D01*
X0849127Y1083974D01*
X0850747Y1087660D01*
X0852456Y1091306D01*
X0854254Y1094910D01*
X0856138Y1098468D01*
X0858109Y1101980D01*
X0860165Y1105443D01*
X0862304Y1108854D01*
X0864526Y1112212D01*
X0866829Y1115516D01*
X0869212Y1118762D01*
X0871673Y1121949D01*
X0874211Y1125075D01*
X0876824Y1128139D01*
X0879512Y1131138D01*
X0882271Y1134071D01*
X0885101Y1136936D01*
X0888000Y1139731D01*
X0890966Y1142454D01*
X0893998Y1145105D01*
X0897093Y1147680D01*
X0900250Y1150180D01*
X0903467Y1152602D01*
X0906742Y1154945D01*
X0910073Y1157208D01*
X0913458Y1159389D01*
X0916895Y1161486D01*
X0920383Y1163500D01*
X0923918Y1165428D01*
X0927499Y1167269D01*
X0931124Y1169022D01*
X0934791Y1170687D01*
X0938497Y1172262D01*
X0942240Y1173746D01*
X0946019Y1175139D01*
X0949830Y1176439D01*
X0953672Y1177646D01*
X0957542Y1178759D01*
X0961438Y1179778D01*
X0965357Y1180701D01*
X0969298Y1181529D01*
X0973258Y1182260D01*
X0977234Y1182895D01*
X0981225Y1183433D01*
X0985228Y1183873D01*
X0989240Y1184216D01*
X0993259Y1184461D01*
X0997283Y1184608D01*
X1001310Y1184657D01*
X1001310Y1145287D01*
X1174539Y1145287D01*
X1095208Y1128555D02*
X1095210Y1128689D01*
X1095216Y1128823D01*
X1095226Y1128957D01*
X1095240Y1129091D01*
X1095258Y1129224D01*
X1095279Y1129356D01*
X1095305Y1129488D01*
X1095335Y1129619D01*
X1095368Y1129749D01*
X1095405Y1129877D01*
X1095447Y1130005D01*
X1095491Y1130132D01*
X1095540Y1130257D01*
X1095592Y1130380D01*
X1095648Y1130502D01*
X1095708Y1130623D01*
X1095771Y1130741D01*
X1095837Y1130858D01*
X1095907Y1130972D01*
X1095980Y1131085D01*
X1096057Y1131195D01*
X1096137Y1131303D01*
X1096220Y1131408D01*
X1096306Y1131511D01*
X1096395Y1131611D01*
X1096487Y1131709D01*
X1096582Y1131804D01*
X1096680Y1131896D01*
X1096780Y1131985D01*
X1096883Y1132071D01*
X1096988Y1132154D01*
X1097096Y1132234D01*
X1097206Y1132311D01*
X1097319Y1132384D01*
X1097433Y1132454D01*
X1097550Y1132520D01*
X1097668Y1132583D01*
X1097789Y1132643D01*
X1097911Y1132699D01*
X1098034Y1132751D01*
X1098159Y1132800D01*
X1098286Y1132844D01*
X1098414Y1132886D01*
X1098542Y1132923D01*
X1098672Y1132956D01*
X1098803Y1132986D01*
X1098935Y1133012D01*
X1099067Y1133033D01*
X1099200Y1133051D01*
X1099334Y1133065D01*
X1099468Y1133075D01*
X1099602Y1133081D01*
X1099736Y1133083D01*
X1099870Y1133081D01*
X1100004Y1133075D01*
X1100138Y1133065D01*
X1100272Y1133051D01*
X1100405Y1133033D01*
X1100537Y1133012D01*
X1100669Y1132986D01*
X1100800Y1132956D01*
X1100930Y1132923D01*
X1101058Y1132886D01*
X1101186Y1132844D01*
X1101313Y1132800D01*
X1101438Y1132751D01*
X1101561Y1132699D01*
X1101683Y1132643D01*
X1101804Y1132583D01*
X1101922Y1132520D01*
X1102039Y1132454D01*
X1102153Y1132384D01*
X1102266Y1132311D01*
X1102376Y1132234D01*
X1102484Y1132154D01*
X1102589Y1132071D01*
X1102692Y1131985D01*
X1102792Y1131896D01*
X1102890Y1131804D01*
X1102985Y1131709D01*
X1103077Y1131611D01*
X1103166Y1131511D01*
X1103252Y1131408D01*
X1103335Y1131303D01*
X1103415Y1131195D01*
X1103492Y1131085D01*
X1103565Y1130972D01*
X1103635Y1130858D01*
X1103701Y1130741D01*
X1103764Y1130623D01*
X1103824Y1130502D01*
X1103880Y1130380D01*
X1103932Y1130257D01*
X1103981Y1130132D01*
X1104025Y1130005D01*
X1104067Y1129877D01*
X1104104Y1129749D01*
X1104137Y1129619D01*
X1104167Y1129488D01*
X1104193Y1129356D01*
X1104214Y1129224D01*
X1104232Y1129091D01*
X1104246Y1128957D01*
X1104256Y1128823D01*
X1104262Y1128689D01*
X1104264Y1128555D01*
X1104262Y1128421D01*
X1104256Y1128287D01*
X1104246Y1128153D01*
X1104232Y1128019D01*
X1104214Y1127886D01*
X1104193Y1127754D01*
X1104167Y1127622D01*
X1104137Y1127491D01*
X1104104Y1127361D01*
X1104067Y1127233D01*
X1104025Y1127105D01*
X1103981Y1126978D01*
X1103932Y1126853D01*
X1103880Y1126730D01*
X1103824Y1126608D01*
X1103764Y1126487D01*
X1103701Y1126369D01*
X1103635Y1126252D01*
X1103565Y1126138D01*
X1103492Y1126025D01*
X1103415Y1125915D01*
X1103335Y1125807D01*
X1103252Y1125702D01*
X1103166Y1125599D01*
X1103077Y1125499D01*
X1102985Y1125401D01*
X1102890Y1125306D01*
X1102792Y1125214D01*
X1102692Y1125125D01*
X1102589Y1125039D01*
X1102484Y1124956D01*
X1102376Y1124876D01*
X1102266Y1124799D01*
X1102153Y1124726D01*
X1102039Y1124656D01*
X1101922Y1124590D01*
X1101804Y1124527D01*
X1101683Y1124467D01*
X1101561Y1124411D01*
X1101438Y1124359D01*
X1101313Y1124310D01*
X1101186Y1124266D01*
X1101058Y1124224D01*
X1100930Y1124187D01*
X1100800Y1124154D01*
X1100669Y1124124D01*
X1100537Y1124098D01*
X1100405Y1124077D01*
X1100272Y1124059D01*
X1100138Y1124045D01*
X1100004Y1124035D01*
X1099870Y1124029D01*
X1099736Y1124027D01*
X1099602Y1124029D01*
X1099468Y1124035D01*
X1099334Y1124045D01*
X1099200Y1124059D01*
X1099067Y1124077D01*
X1098935Y1124098D01*
X1098803Y1124124D01*
X1098672Y1124154D01*
X1098542Y1124187D01*
X1098414Y1124224D01*
X1098286Y1124266D01*
X1098159Y1124310D01*
X1098034Y1124359D01*
X1097911Y1124411D01*
X1097789Y1124467D01*
X1097668Y1124527D01*
X1097550Y1124590D01*
X1097433Y1124656D01*
X1097319Y1124726D01*
X1097206Y1124799D01*
X1097096Y1124876D01*
X1096988Y1124956D01*
X1096883Y1125039D01*
X1096780Y1125125D01*
X1096680Y1125214D01*
X1096582Y1125306D01*
X1096487Y1125401D01*
X1096395Y1125499D01*
X1096306Y1125599D01*
X1096220Y1125702D01*
X1096137Y1125807D01*
X1096057Y1125915D01*
X1095980Y1126025D01*
X1095907Y1126138D01*
X1095837Y1126252D01*
X1095771Y1126369D01*
X1095708Y1126487D01*
X1095648Y1126608D01*
X1095592Y1126730D01*
X1095540Y1126853D01*
X1095491Y1126978D01*
X1095447Y1127105D01*
X1095405Y1127233D01*
X1095368Y1127361D01*
X1095335Y1127491D01*
X1095305Y1127622D01*
X1095279Y1127754D01*
X1095258Y1127886D01*
X1095240Y1128019D01*
X1095226Y1128153D01*
X1095216Y1128287D01*
X1095210Y1128421D01*
X1095208Y1128555D01*
X1024342Y1128555D02*
X1024344Y1128689D01*
X1024350Y1128823D01*
X1024360Y1128957D01*
X1024374Y1129091D01*
X1024392Y1129224D01*
X1024413Y1129356D01*
X1024439Y1129488D01*
X1024469Y1129619D01*
X1024502Y1129749D01*
X1024539Y1129877D01*
X1024581Y1130005D01*
X1024625Y1130132D01*
X1024674Y1130257D01*
X1024726Y1130380D01*
X1024782Y1130502D01*
X1024842Y1130623D01*
X1024905Y1130741D01*
X1024971Y1130858D01*
X1025041Y1130972D01*
X1025114Y1131085D01*
X1025191Y1131195D01*
X1025271Y1131303D01*
X1025354Y1131408D01*
X1025440Y1131511D01*
X1025529Y1131611D01*
X1025621Y1131709D01*
X1025716Y1131804D01*
X1025814Y1131896D01*
X1025914Y1131985D01*
X1026017Y1132071D01*
X1026122Y1132154D01*
X1026230Y1132234D01*
X1026340Y1132311D01*
X1026453Y1132384D01*
X1026567Y1132454D01*
X1026684Y1132520D01*
X1026802Y1132583D01*
X1026923Y1132643D01*
X1027045Y1132699D01*
X1027168Y1132751D01*
X1027293Y1132800D01*
X1027420Y1132844D01*
X1027548Y1132886D01*
X1027676Y1132923D01*
X1027806Y1132956D01*
X1027937Y1132986D01*
X1028069Y1133012D01*
X1028201Y1133033D01*
X1028334Y1133051D01*
X1028468Y1133065D01*
X1028602Y1133075D01*
X1028736Y1133081D01*
X1028870Y1133083D01*
X1029004Y1133081D01*
X1029138Y1133075D01*
X1029272Y1133065D01*
X1029406Y1133051D01*
X1029539Y1133033D01*
X1029671Y1133012D01*
X1029803Y1132986D01*
X1029934Y1132956D01*
X1030064Y1132923D01*
X1030192Y1132886D01*
X1030320Y1132844D01*
X1030447Y1132800D01*
X1030572Y1132751D01*
X1030695Y1132699D01*
X1030817Y1132643D01*
X1030938Y1132583D01*
X1031056Y1132520D01*
X1031173Y1132454D01*
X1031287Y1132384D01*
X1031400Y1132311D01*
X1031510Y1132234D01*
X1031618Y1132154D01*
X1031723Y1132071D01*
X1031826Y1131985D01*
X1031926Y1131896D01*
X1032024Y1131804D01*
X1032119Y1131709D01*
X1032211Y1131611D01*
X1032300Y1131511D01*
X1032386Y1131408D01*
X1032469Y1131303D01*
X1032549Y1131195D01*
X1032626Y1131085D01*
X1032699Y1130972D01*
X1032769Y1130858D01*
X1032835Y1130741D01*
X1032898Y1130623D01*
X1032958Y1130502D01*
X1033014Y1130380D01*
X1033066Y1130257D01*
X1033115Y1130132D01*
X1033159Y1130005D01*
X1033201Y1129877D01*
X1033238Y1129749D01*
X1033271Y1129619D01*
X1033301Y1129488D01*
X1033327Y1129356D01*
X1033348Y1129224D01*
X1033366Y1129091D01*
X1033380Y1128957D01*
X1033390Y1128823D01*
X1033396Y1128689D01*
X1033398Y1128555D01*
X1033396Y1128421D01*
X1033390Y1128287D01*
X1033380Y1128153D01*
X1033366Y1128019D01*
X1033348Y1127886D01*
X1033327Y1127754D01*
X1033301Y1127622D01*
X1033271Y1127491D01*
X1033238Y1127361D01*
X1033201Y1127233D01*
X1033159Y1127105D01*
X1033115Y1126978D01*
X1033066Y1126853D01*
X1033014Y1126730D01*
X1032958Y1126608D01*
X1032898Y1126487D01*
X1032835Y1126369D01*
X1032769Y1126252D01*
X1032699Y1126138D01*
X1032626Y1126025D01*
X1032549Y1125915D01*
X1032469Y1125807D01*
X1032386Y1125702D01*
X1032300Y1125599D01*
X1032211Y1125499D01*
X1032119Y1125401D01*
X1032024Y1125306D01*
X1031926Y1125214D01*
X1031826Y1125125D01*
X1031723Y1125039D01*
X1031618Y1124956D01*
X1031510Y1124876D01*
X1031400Y1124799D01*
X1031287Y1124726D01*
X1031173Y1124656D01*
X1031056Y1124590D01*
X1030938Y1124527D01*
X1030817Y1124467D01*
X1030695Y1124411D01*
X1030572Y1124359D01*
X1030447Y1124310D01*
X1030320Y1124266D01*
X1030192Y1124224D01*
X1030064Y1124187D01*
X1029934Y1124154D01*
X1029803Y1124124D01*
X1029671Y1124098D01*
X1029539Y1124077D01*
X1029406Y1124059D01*
X1029272Y1124045D01*
X1029138Y1124035D01*
X1029004Y1124029D01*
X1028870Y1124027D01*
X1028736Y1124029D01*
X1028602Y1124035D01*
X1028468Y1124045D01*
X1028334Y1124059D01*
X1028201Y1124077D01*
X1028069Y1124098D01*
X1027937Y1124124D01*
X1027806Y1124154D01*
X1027676Y1124187D01*
X1027548Y1124224D01*
X1027420Y1124266D01*
X1027293Y1124310D01*
X1027168Y1124359D01*
X1027045Y1124411D01*
X1026923Y1124467D01*
X1026802Y1124527D01*
X1026684Y1124590D01*
X1026567Y1124656D01*
X1026453Y1124726D01*
X1026340Y1124799D01*
X1026230Y1124876D01*
X1026122Y1124956D01*
X1026017Y1125039D01*
X1025914Y1125125D01*
X1025814Y1125214D01*
X1025716Y1125306D01*
X1025621Y1125401D01*
X1025529Y1125499D01*
X1025440Y1125599D01*
X1025354Y1125702D01*
X1025271Y1125807D01*
X1025191Y1125915D01*
X1025114Y1126025D01*
X1025041Y1126138D01*
X1024971Y1126252D01*
X1024905Y1126369D01*
X1024842Y1126487D01*
X1024782Y1126608D01*
X1024726Y1126730D01*
X1024674Y1126853D01*
X1024625Y1126978D01*
X1024581Y1127105D01*
X1024539Y1127233D01*
X1024502Y1127361D01*
X1024469Y1127491D01*
X1024439Y1127622D01*
X1024413Y1127754D01*
X1024392Y1127886D01*
X1024374Y1128019D01*
X1024360Y1128153D01*
X1024350Y1128287D01*
X1024344Y1128421D01*
X1024342Y1128555D01*
X1095208Y0910051D02*
X1095210Y0910185D01*
X1095216Y0910319D01*
X1095226Y0910453D01*
X1095240Y0910587D01*
X1095258Y0910720D01*
X1095279Y0910852D01*
X1095305Y0910984D01*
X1095335Y0911115D01*
X1095368Y0911245D01*
X1095405Y0911373D01*
X1095447Y0911501D01*
X1095491Y0911628D01*
X1095540Y0911753D01*
X1095592Y0911876D01*
X1095648Y0911998D01*
X1095708Y0912119D01*
X1095771Y0912237D01*
X1095837Y0912354D01*
X1095907Y0912468D01*
X1095980Y0912581D01*
X1096057Y0912691D01*
X1096137Y0912799D01*
X1096220Y0912904D01*
X1096306Y0913007D01*
X1096395Y0913107D01*
X1096487Y0913205D01*
X1096582Y0913300D01*
X1096680Y0913392D01*
X1096780Y0913481D01*
X1096883Y0913567D01*
X1096988Y0913650D01*
X1097096Y0913730D01*
X1097206Y0913807D01*
X1097319Y0913880D01*
X1097433Y0913950D01*
X1097550Y0914016D01*
X1097668Y0914079D01*
X1097789Y0914139D01*
X1097911Y0914195D01*
X1098034Y0914247D01*
X1098159Y0914296D01*
X1098286Y0914340D01*
X1098414Y0914382D01*
X1098542Y0914419D01*
X1098672Y0914452D01*
X1098803Y0914482D01*
X1098935Y0914508D01*
X1099067Y0914529D01*
X1099200Y0914547D01*
X1099334Y0914561D01*
X1099468Y0914571D01*
X1099602Y0914577D01*
X1099736Y0914579D01*
X1099870Y0914577D01*
X1100004Y0914571D01*
X1100138Y0914561D01*
X1100272Y0914547D01*
X1100405Y0914529D01*
X1100537Y0914508D01*
X1100669Y0914482D01*
X1100800Y0914452D01*
X1100930Y0914419D01*
X1101058Y0914382D01*
X1101186Y0914340D01*
X1101313Y0914296D01*
X1101438Y0914247D01*
X1101561Y0914195D01*
X1101683Y0914139D01*
X1101804Y0914079D01*
X1101922Y0914016D01*
X1102039Y0913950D01*
X1102153Y0913880D01*
X1102266Y0913807D01*
X1102376Y0913730D01*
X1102484Y0913650D01*
X1102589Y0913567D01*
X1102692Y0913481D01*
X1102792Y0913392D01*
X1102890Y0913300D01*
X1102985Y0913205D01*
X1103077Y0913107D01*
X1103166Y0913007D01*
X1103252Y0912904D01*
X1103335Y0912799D01*
X1103415Y0912691D01*
X1103492Y0912581D01*
X1103565Y0912468D01*
X1103635Y0912354D01*
X1103701Y0912237D01*
X1103764Y0912119D01*
X1103824Y0911998D01*
X1103880Y0911876D01*
X1103932Y0911753D01*
X1103981Y0911628D01*
X1104025Y0911501D01*
X1104067Y0911373D01*
X1104104Y0911245D01*
X1104137Y0911115D01*
X1104167Y0910984D01*
X1104193Y0910852D01*
X1104214Y0910720D01*
X1104232Y0910587D01*
X1104246Y0910453D01*
X1104256Y0910319D01*
X1104262Y0910185D01*
X1104264Y0910051D01*
X1104262Y0909917D01*
X1104256Y0909783D01*
X1104246Y0909649D01*
X1104232Y0909515D01*
X1104214Y0909382D01*
X1104193Y0909250D01*
X1104167Y0909118D01*
X1104137Y0908987D01*
X1104104Y0908857D01*
X1104067Y0908729D01*
X1104025Y0908601D01*
X1103981Y0908474D01*
X1103932Y0908349D01*
X1103880Y0908226D01*
X1103824Y0908104D01*
X1103764Y0907983D01*
X1103701Y0907865D01*
X1103635Y0907748D01*
X1103565Y0907634D01*
X1103492Y0907521D01*
X1103415Y0907411D01*
X1103335Y0907303D01*
X1103252Y0907198D01*
X1103166Y0907095D01*
X1103077Y0906995D01*
X1102985Y0906897D01*
X1102890Y0906802D01*
X1102792Y0906710D01*
X1102692Y0906621D01*
X1102589Y0906535D01*
X1102484Y0906452D01*
X1102376Y0906372D01*
X1102266Y0906295D01*
X1102153Y0906222D01*
X1102039Y0906152D01*
X1101922Y0906086D01*
X1101804Y0906023D01*
X1101683Y0905963D01*
X1101561Y0905907D01*
X1101438Y0905855D01*
X1101313Y0905806D01*
X1101186Y0905762D01*
X1101058Y0905720D01*
X1100930Y0905683D01*
X1100800Y0905650D01*
X1100669Y0905620D01*
X1100537Y0905594D01*
X1100405Y0905573D01*
X1100272Y0905555D01*
X1100138Y0905541D01*
X1100004Y0905531D01*
X1099870Y0905525D01*
X1099736Y0905523D01*
X1099602Y0905525D01*
X1099468Y0905531D01*
X1099334Y0905541D01*
X1099200Y0905555D01*
X1099067Y0905573D01*
X1098935Y0905594D01*
X1098803Y0905620D01*
X1098672Y0905650D01*
X1098542Y0905683D01*
X1098414Y0905720D01*
X1098286Y0905762D01*
X1098159Y0905806D01*
X1098034Y0905855D01*
X1097911Y0905907D01*
X1097789Y0905963D01*
X1097668Y0906023D01*
X1097550Y0906086D01*
X1097433Y0906152D01*
X1097319Y0906222D01*
X1097206Y0906295D01*
X1097096Y0906372D01*
X1096988Y0906452D01*
X1096883Y0906535D01*
X1096780Y0906621D01*
X1096680Y0906710D01*
X1096582Y0906802D01*
X1096487Y0906897D01*
X1096395Y0906995D01*
X1096306Y0907095D01*
X1096220Y0907198D01*
X1096137Y0907303D01*
X1096057Y0907411D01*
X1095980Y0907521D01*
X1095907Y0907634D01*
X1095837Y0907748D01*
X1095771Y0907865D01*
X1095708Y0907983D01*
X1095648Y0908104D01*
X1095592Y0908226D01*
X1095540Y0908349D01*
X1095491Y0908474D01*
X1095447Y0908601D01*
X1095405Y0908729D01*
X1095368Y0908857D01*
X1095335Y0908987D01*
X1095305Y0909118D01*
X1095279Y0909250D01*
X1095258Y0909382D01*
X1095240Y0909515D01*
X1095226Y0909649D01*
X1095216Y0909783D01*
X1095210Y0909917D01*
X1095208Y0910051D01*
D17*
X1099303Y0929303D03*
X1094303Y0949303D03*
X1094303Y0954303D03*
X1096692Y0969303D03*
X1096692Y0974303D03*
X1094303Y0979303D03*
X1099303Y0989303D03*
X1104303Y0994303D03*
X1099303Y1009303D03*
X1114303Y1009303D03*
X1119303Y1019303D03*
X1124303Y1019303D03*
X1134303Y1019303D03*
X1139303Y1019303D03*
X1134303Y1014303D03*
X1139303Y1029303D03*
X1134303Y1039303D03*
X1124303Y1044303D03*
X1114303Y1044303D03*
X1104303Y1039303D03*
X1096692Y1049303D03*
X1094303Y1054303D03*
X1089303Y1046303D03*
X1089303Y1039303D03*
X1084303Y1034303D03*
X1089303Y1029303D03*
X1084303Y1026692D03*
X1099303Y1026692D03*
X1094303Y1064303D03*
X1096800Y1079805D03*
X1091303Y1086303D03*
X1094303Y1094303D03*
X1119303Y1112303D03*
X1134303Y1089303D03*
X1140055Y1097055D03*
X1139303Y1112303D03*
X1149303Y1084303D03*
X1136303Y1079303D03*
X1131805Y1077805D03*
X1134303Y1059303D03*
X1139303Y1054303D03*
X1149303Y1059303D03*
X1154303Y1069303D03*
X1173303Y1062303D03*
X1177303Y1090303D03*
X1208170Y1044303D03*
X1199303Y1029303D03*
X1189303Y1009303D03*
X1174303Y1029303D03*
X1169303Y1034303D03*
X1164303Y1024303D03*
X1164303Y0999303D03*
X1179303Y0984303D03*
X1179303Y0969303D03*
X1164303Y0969303D03*
X1164303Y0949303D03*
X1144303Y0964303D03*
X1139303Y0943370D03*
X1129303Y0994303D03*
X1037303Y1002303D03*
X1029303Y1009303D03*
X1024303Y1009303D03*
X1014303Y1008336D03*
X1014303Y1011914D03*
X1009303Y1014303D03*
X1001303Y1010303D03*
X0995531Y1014531D03*
X0991692Y1017725D03*
X0994303Y1021303D03*
X0990914Y1026303D03*
X0994303Y1029303D03*
X0992914Y1034303D03*
X0997303Y1040303D03*
X1002575Y1040642D03*
X0999303Y1026135D03*
X0986914Y1016303D03*
X0986624Y1009624D03*
X0986914Y1005935D03*
X0993303Y1006303D03*
X0989303Y0999303D03*
X0987273Y0996273D03*
X0982613Y1000992D03*
X0977303Y0998103D03*
X0979303Y0994303D03*
X0979303Y0984303D03*
X0979303Y0974303D03*
X0981303Y0966303D03*
X0983303Y0962303D03*
X0989303Y0974303D03*
X0994303Y0994303D03*
X1011914Y1002303D03*
X1019303Y0999303D03*
X1024303Y0994303D03*
X1014303Y0989303D03*
X1025303Y0970303D03*
X1023303Y0958303D03*
X0989303Y0944303D03*
X0985303Y0928303D03*
X0989303Y0919303D03*
X0994914Y0922303D03*
X0985303Y0902303D03*
X0969303Y0909303D03*
X0973303Y0916692D03*
X0975303Y0932303D03*
X0953303Y0934303D03*
X0947303Y0928692D03*
X0939303Y0919303D03*
X0935303Y0923914D03*
X0926924Y0956681D03*
X0927303Y0960303D03*
X0939303Y0969303D03*
X0947303Y0968303D03*
X0949303Y0962303D03*
X0951303Y0978303D03*
X0947725Y0978754D03*
X0943477Y0978477D03*
X0947303Y0992017D03*
X0939828Y0992665D03*
X0941492Y0998492D03*
X0936665Y1001828D03*
X0934914Y0996250D03*
X0929303Y1000303D03*
X0921692Y1000303D03*
X0919303Y0994303D03*
X0913356Y0993875D03*
X0909303Y0993200D03*
X0909298Y1000282D03*
X0909303Y1006303D03*
X0896089Y1006692D03*
X0889303Y1006303D03*
X0885303Y1008692D03*
X0881303Y1014303D03*
X0885510Y1018303D03*
X0875303Y1026303D03*
X0865303Y1042303D03*
X0855303Y1046303D03*
X0857692Y1034303D03*
X0857692Y1010303D03*
X0861303Y1001692D03*
X0873303Y0988303D03*
X0877303Y0980303D03*
X0885303Y0970303D03*
X0889303Y0970303D03*
X0893303Y0966303D03*
X0901303Y0958303D03*
X0913303Y0958303D03*
X0911303Y0948303D03*
X0903303Y0920303D03*
X0899303Y0899303D03*
X0909303Y0896692D03*
X0883303Y0924303D03*
X0879725Y0924303D03*
X0865303Y0970303D03*
X0863303Y0982303D03*
X0882235Y0994303D03*
X0885303Y1000303D03*
X0893303Y0994303D03*
X0905303Y0986303D03*
X0919303Y0980303D03*
X0927303Y0981846D03*
X0924212Y1007666D03*
X0929303Y1012303D03*
X0927303Y1022303D03*
X0927299Y1031677D03*
X0922904Y1033168D03*
X0919326Y1032380D03*
X0927303Y1042095D03*
X0923303Y1046692D03*
X0921303Y1052303D03*
X0915303Y1044303D03*
X0932081Y1060303D03*
X0937303Y1060303D03*
X0937303Y1054303D03*
X0943303Y1054303D03*
X0940006Y1037946D03*
X0923754Y1074303D03*
X0909303Y1084303D03*
X0904303Y1074303D03*
X0895303Y1082303D03*
X0895303Y1064303D03*
X0881303Y1058303D03*
X0881692Y1050303D03*
X0859692Y1070303D03*
X0881303Y1122303D03*
X0909303Y1118303D03*
X0915303Y1110303D03*
X0911692Y1102303D03*
X0915303Y1098303D03*
X0919303Y1100303D03*
X0935303Y1114303D03*
X0935303Y1126303D03*
X0958326Y1109892D03*
X0961303Y1114303D03*
X0963303Y1094303D03*
X0950303Y1084303D03*
X0979303Y1074303D03*
X0983303Y1062303D03*
X0977303Y1042303D03*
X0979303Y1038303D03*
X0964219Y0989386D03*
X0967740Y0987848D03*
X0969303Y0984303D03*
X0965395Y0983806D03*
X0967303Y0962303D03*
X0973303Y0888803D03*
X0959303Y0869792D03*
X1029303Y1034303D03*
X1034303Y1039303D03*
X1029303Y1044303D03*
X1028914Y1080303D03*
X1025303Y1082692D03*
X0989303Y1086303D03*
X0981303Y1092303D03*
X0986914Y1096303D03*
X0987303Y1111092D03*
X0979303Y1114303D03*
X0976914Y1111092D03*
X0979303Y1124303D03*
X0979303Y1132303D03*
X0973303Y1173774D03*
X0905355Y1146227D03*
M02*
